# xmcd CD database file
#
# Track frame offsets:
#	150
#	13527
#	30044
#	43069
#	57087
#	71466
#	83776
#	104177
#	119030
#	132339
#
# Disc length: 1936 seconds
#
# Revision: 1
# Processed by: cddbd v1.5.2PL0 Copyright (c) Steve Scherf et al.
# Submitted via: CDValet v3.40 - Copyright (c) 1996 - 1998 Greg Leichner
#
DISCID=83078e0a
DTITLE=Wrights, The - In The Summertime
DYEAR=1900
DGENRE=
TTITLE0=Spike Driver Blues - Take This Hammer
TTITLE1=Always Tomorrow
TTITLE2=Good Luck Charm
TTITLE3=In The Summertime
TTITLE4=Bridge Washed Out
TTITLE5=In Spite Of Me
TTITLE6=I Feel The Blues Moving In
TTITLE7=I'd Have To Be Crazy
TTITLE8=Single Girl, Married Girl
TTITLE9=Open Up Your Heart (And Let The Sunshine In)
EXTD=
EXTT0=
EXTT1=
EXTT2=
EXTT3=
EXTT4=
EXTT5=
EXTT6=
EXTT7=
EXTT8=
EXTT9=
PLAYORDER=
